<svg width="300" height="382" viewBox="0 0 300 382" fill="none" xmlns="http://www.w3.org/2000/svg">
<rect y="41" width="300" height="300" rx="150" fill="#FFFAEC"/>
<path d="M230.187 240.392H124.206V295.346H92.8037V157.963L120.28 130.486H92.8037V103.009H230.187V130.486H124.206V236.467L147.757 212.916H230.187V240.392Z" fill="#0F3015"/>
<path d="M75.3832 280.346C76.1059 280.346 76.729 280.607 77.2523 281.131C77.7508 281.629 78 282.24 78 282.963V296.047H64.9159L62.2991 293.43V296.047H59.6822V285.579C59.6822 284.857 59.9439 284.246 60.4673 283.748C60.9657 283.224 61.5763 282.963 62.2991 282.963H67.5327V282.888C67.5327 282.165 67.7944 281.567 68.3178 281.093C68.8162 280.595 69.4268 280.346 70.1495 280.346H75.3832ZM67.5327 285.953H62.2991V293.056H69.7757L67.5327 290.813V285.953ZM75.3832 283.336H70.1495V293.056H75.3832V283.336ZM78 258.287V262.1L70.1495 269.876V261.651H62.2991V271.371H78V274.361H64.8785L62.2991 271.745V274.361H59.6822V261.277C59.6822 260.58 59.9439 259.969 60.4673 259.446C60.9907 258.922 61.6012 258.661 62.2991 258.661H69.4019C71.3956 258.661 72.3925 259.533 72.3925 261.277V263.52H72.8037L78 258.287ZM75.3832 237.345C76.1059 237.345 76.729 237.607 77.2523 238.13C77.7508 238.628 78 239.239 78 239.962V250.429C78 251.152 77.7508 251.775 77.2523 252.298C76.729 252.797 76.1059 253.046 75.3832 253.046H62.2991C61.5763 253.046 60.9657 252.797 60.4673 252.298C59.9439 251.775 59.6822 251.152 59.6822 250.429V239.962C59.6822 239.239 59.9439 238.628 60.4673 238.13C60.9657 237.607 61.5763 237.345 62.2991 237.345H75.3832ZM75.3832 240.335H62.2991V250.055H75.3832V240.335ZM78 215.108V218.098H72.7664V227.818H78V230.809H62.2991C61.5763 230.809 60.9657 230.559 60.4673 230.061C59.9439 229.538 59.6822 228.915 59.6822 228.192L59.6822 215.108H78ZM70.1495 218.098H62.2991L62.2991 227.818H72.3925L70.1495 225.575V218.098ZM75.3832 192.692C76.081 192.692 76.6916 192.954 77.215 193.477C77.7383 194.001 78 194.611 78 195.309V208.393H64.9159L62.2991 205.776V208.393H59.6822V195.309C59.6822 194.611 59.9439 194.001 60.4673 193.477C60.9907 192.954 61.6012 192.692 62.2991 192.692H75.3832ZM75.3832 195.683H62.2991V205.403H77.6262L75.3832 203.16V195.683ZM75.3832 170.46C76.1059 170.46 76.729 170.721 77.2523 171.245C77.7508 171.743 78 172.354 78 173.076V186.161H64.9159L62.2991 183.544V186.161H59.6822V175.693C59.6822 174.971 59.9439 174.36 60.4673 173.861C60.9657 173.338 61.5763 173.076 62.2991 173.076H67.5327V173.002C67.5327 172.279 67.7944 171.681 68.3178 171.207C68.8162 170.709 69.4268 170.46 70.1495 170.46H75.3832ZM67.5327 176.067H62.2991V183.17H69.7757L67.5327 180.927V176.067ZM75.3832 173.45H70.1495V183.17H75.3832V173.45ZM78 148.774V151.765H72.7664L72.7664 161.485H78V164.475H62.2991C61.5763 164.475 60.9657 164.226 60.4673 163.728C59.9439 163.204 59.6822 162.581 59.6822 161.859V148.774H78ZM70.1495 151.765H62.2991V161.485H72.3925L70.1495 159.242L70.1495 151.765ZM77.9626 126.359V131.593L62.4486 138.696L62.4486 140.191L64.3178 139.069H77.9626V142.06H59.6449L59.6449 136.789L75.1589 129.724V128.228L73.2897 129.35H59.6449V126.359H77.9626ZM75.3832 103.944C76.081 103.944 76.6916 104.206 77.215 104.729C77.7383 105.252 78 105.863 78 106.561V119.645H64.9159L62.2991 117.028V119.645H59.6822V106.561C59.6822 105.863 59.9439 105.252 60.4673 104.729C60.9907 104.206 61.6012 103.944 62.2991 103.944H75.3832ZM75.3832 106.934H62.2991V116.654H77.6262L75.3832 114.411V106.934Z" fill="#0F3015"/>
</svg>
